# xmcd
#
# Track frame offsets: 
#        150
#        17068
#        35425
#        60508
#        74607
#        91317
#        108279
#        135054
#        155339
#        177061
#        192301
#        210347
#
# Disc length: 2987 seconds
#
# Revision: 0
# Processed by: cddbd v1.5.2PL0 Copyright (c) Steve Scherf et al.
# Submitted via: ExactAudioCopy v0.90b4
#
DISCID=920ba90c
DTITLE=Tuba Skinny - Garbage Man
DYEAR=2011
DGENRE=Swing
TTITLE0=Broken Hearted Blues
TTITLE1=Any Kind-a-Man
TTITLE2=Frosty Morning
TTITLE3=How Do They Do It That Way
TTITLE4=Sweet Mama Hurry Home
TTITLE5=Mother's Son-in-Law
TTITLE6=Nobody's Blues But Mine
TTITLE7=Some of These Days
TTITLE8=Weary Eyed Blues
TTITLE9=Minor Drag
TTITLE10=Muddy Water
TTITLE11=Garbage Man
EXTD=
EXTT0=
EXTT1=
EXTT2=
EXTT3=
EXTT4=
EXTT5=
EXTT6=
EXTT7=
EXTT8=
EXTT9=
EXTT10=
EXTT11=
PLAYORDER=
